{"title":"Across The Line The Exodus Of Charlie Wright 2010 DVDRip Xvid AC","uid":6080457,"size":1499131324,"categoryP":"video","categoryS":"movies","magnet":"?xt=urn:btih:dadfb579ded79fa67985e641bb4f8302c48a872f&amp;dn=Across+The+Line+The+Exodus+Of+Charlie+Wright+2010+DVDRip+Xvid+AC&amp;tr=udp%3A%2F%2Ftracker.openbittorrent.com%3A80&amp;tr=udp%3A%2F%2Fopen.demonii.com%3A1337&amp;tr=udp%3A%2F%2Ftracker.coppersurfer.tk%3A6969&amp;tr=udp%3A%2F%2Fexodus.desync.com%3A6969","seeders":0,"leechers":0,"uploader":"bambooka","files":3,"time":1294093449,"description":"General\nComplete name                    : Across The Line The Exodus Of Charlie Wright-DvdRip-Xvid-AC3\nFormat                           : AVI\nFormat/Info                      : Audio Video Interleave\nFile size                        : 1.36 GiB\nDuration                         : 1h 34mn\nOverall bit rate                 : 2 063 Kbps\nWriting library                  : MPlayer\n\nVideo\nID                               : 0\nFormat                           : MPEG-4 Visual\nFormat profile                   : Simple@L1\nFormat settings, BVOP            : No\nFormat settings, QPel            : No\nFormat settings, GMC             : No warppoints\nFormat settings, Matrix          : Default (H.263)\nCodec ID                         : DX50\nCodec ID/Hint                    : DivX 5\nDuration                         : 1h 34mn\nBit rate                         : 1 922 Kbps\nWidth                            : 720 pixels\nHeight                           : 406 pixels\nDisplay aspect ratio             : 16:9\nFrame rate                       : 29.970 fps\nColor space                      : YUV\nChroma subsampling               : 4:2:0\nBit depth                        : 8 bits\nScan type                        : Interlaced\nScan order                       : Top Field First\nBits/(Pixel*Frame)               : 0.219\nStream size                      : 1.27 GiB (93%)\nWriting library                  : Lavc52.30.1\n\nAudio\nID                               : 1\nFormat                           : MPEG Audio\nFormat version                   : Version 1\nFormat profile                   : Layer 3\nMode                             : Joint stereo\nMode extension                   : MS Stereo\nCodec ID                         : 55\nCodec ID/Hint                    : MP3\nDuration                         : 1h 34mn\nBit rate mode                    : Constant\nBit rate                         : 128 Kbps\nChannel(s)                       : 2 channels\nSampling rate                    : 44.1 KHz\nStream size                      : 86.4 MiB (6%)\nAlignment                        : Aligned on interleaves\nInterleave, duration             : 26 ms (0.78 video frame)\nInterleave, preload duration     : 809 ms\nWriting library                  : LAME3.98.2\n\n\n=========================================================================\n &lt;a href=&quot;\nhttp://leetleech.org/images/82772819133299675434.jpg&quot; rel=&quot;nofollow&quot; target=&quot;_NEW&quot;&gt;\nhttp://leetleech.org/images/82772819133299675434.jpg&lt;/a&gt;","torrent":{"xt":"urn:btih:dadfb579ded79fa67985e641bb4f8302c48a872f","amp;dn":"Across+The+Line+The+Exodus+Of+Charlie+Wright+2010+DVDRip+Xvid+AC","amp;tr":["udp%3A%2F%2Ftracker.openbittorrent.com%3A80","udp%3A%2F%2Fopen.demonii.com%3A1337","udp%3A%2F%2Ftracker.coppersurfer.tk%3A6969","udp%3A%2F%2Fexodus.desync.com%3A6969"],"infoHash":"dadfb579ded79fa67985e641bb4f8302c48a872f","infoHashBuffer":{"type":"Buffer","data":[218,223,181,121,222,215,159,166,121,133,230,65,187,79,131,2,196,138,135,47]},"announce":[],"urlList":[]}}